<?xml version="1.0" encoding="utf-8"?>
<!-- Generator: Adobe Illustrator 24.1.1, SVG Export Plug-In . SVG Version: 6.00 Build 0)  -->
<svg version="1.1" xmlns="http://www.w3.org/2000/svg" xmlns:xlink="http://www.w3.org/1999/xlink" x="0px" y="0px"
	 viewBox="0 0 512 512" style="enable-background:new 0 0 512 512;" xml:space="preserve">
<style type="text/css">
	.st0{display:none;}
	.st1{fill:none;stroke:#000000;stroke-width:10;stroke-miterlimit:10;}
	.st2{stroke:#000000;stroke-miterlimit:10;}
</style>
<g id="icon">
	<path class="st1" d="M101.9,164.8c-1.5,1.4-3.7,3.4-6.5,5.9c-10.8,9.6-11.7,9.2-12.7,11.1c-2.8,5.6,2.4,12.2,19.7,38.7
		c8.7,13.2,9.6,15,14.9,22.6c17.3,24.8,21.8,27.2,24.5,28.3c0.4,0.2,0.2,2,27.4,1.9c8.2,0,12.4-0.1,16.3-2.4
		c4.9-2.9,7.1-7.2,7.7-8.5c0.4-0.8,5.4-11.4-0.2-19.5c-0.4-0.5-2.8-4-7.2-5.6c-2.7-1-4.5-0.8-12.9-0.7c-5.1,0.1-7.7,0.1-8.1,0
		c-6.1-0.8-10.3-5.9-16.3-14.7c-4.6-6.7-10.2-15.4-16-26"/>
	<path class="st1" d="M262.6,195.3c-5.9,14-10.7,24.9-13.7,31.7c-5.5,12.5-13,28.8-8.1,35.8c1.7,2.5,4.2,4.3,4.2,4.3
		c0.8,0.7,3.1,2.3,6.9,3.5c6.6,2.1,40.5,2.2,44.9-1.2c2.5-1.9,3.8-4.2,4.3-5c6.2-11-2.8-25.6-3.6-26.8"/>
	<path class="st1" d="M320,105.4c-11.1-6.3-20.7-11.7-28.7-16.1c-5.1-2.8-8.7-4.8-13.9-6.7c-5.4-2-11.2-3.5-21-4.7
		c-11.3-1.5-19.9-1.6-27.5-1.7c-28.5-0.4-42.9-0.7-53.8,0c-7.5,0.4-19,1.1-27.8,2.4c0,0-26.9,4-53.9,20.3
		c-49,29.6-76,111.5-69.2,181.2c2.8,28.4,10.6,49.3,13.8,57.1c3.3,8.2,22.6,54.5,68.1,87.9c52.2,38.3,147.5,65.9,180,26
		c28.7-35.3,4-117.9-40.8-140.6c-6.2-3.2-25.5-13-46.9-6c-28.6,11.7-39.5,32.7-34.4,60.7c10.5,36.8,61.1,50.3,79.9,29.5
		c14.9-22.1-14.2-45.7-23.8-41.8c-1.4,1.5,5,6.1,5.8,15.8c0.1,1.8,0.3,12.1-5.1,15.6c-5.9,3.8-18.2-0.7-28.1-13.4
		c-1.5-2.3-8.1-12.6-5-24.8c3.5-14,17.7-21.8,28.8-22.8c27.7-2.3,45.7,38.5,46.8,41c3,7.1,15.4,36,0.7,54
		c-15.3,18.8-48.7,11.4-57.6,9.4c-34.6-7.7-55.4-34.4-66.2-48.2c-11.3-14.4-18.2-28.8-20.9-34.6c-3.3-7-8.1-17.2-11.5-31.7
		c-2.1-8.7-4.2-17.9-3.7-30.3c0.5-10.2,0.4-20.5,6.6-30.9c2.4-4,5-6.9,6.9-8.8"/>
	<path class="st1" d="M315,181c-0.8,45,20.3,78.1,54.8,90.5c20,3.6,89,4.6,104.2-9.5c28.2-33.6,25.4-104.5-17-127
		c-13.4-7.1-59.2-35.8-70.8-51.6c-4.8-6.6-8.9-13.8-8.9-13.8c-3.3-5.8-5.7-11.1-7.6-15.6c-3.8-13.3-3.4-11.5-26.2-10
		c-9.1,0.8-10.4,1.2-12,2.4c-3,2.2-3.5,5.6-5,15.4c-3.7,24.2-3.5,22.6-4.2,27.6c-1.3,9.1-2.3,15.5-2.4,16
		C319.2,110.4,317.8,127.8,315,181z"/>
	<path class="st1" d="M189.5,239.6c18.6-0.1,37.2-0.3,55.8-0.4"/>
	<path class="st1" d="M354.7,204c0.7,3,2,7.4,4.8,12c1.3,2.2,4.4,6.9,9.5,10.9c7.3,5.8,15.1,7.4,19.2,8.2c13.8,2.6,50.3,3.6,98.8,1"
		/>
	<circle class="st2" cx="398.9" cy="170.7" r="10"/>
	
		<ellipse transform="matrix(0.2298 -0.9732 0.9732 0.2298 148.6389 526.134)" class="st1" cx="406.7" cy="169.2" rx="31.1" ry="31"/>
	<path class="st1" d="M328.5,238.4c-5.3,0.1-13.8,0.2-24.5,0.5c-14.6,0.4-21.5,0.8-23-2.5c-0.7-1.6,1.1-5.4,4.7-13
		c1.6-3.3,3-6,4-7.9"/>
	<path class="st1" d="M285.3,86c0.5-13.4-1.5-17.5-3.8-18.3c-4.9-1.6-11,12.5-18.3,11.2c-7.7-1.3-8.4-18.4-14.8-18.8
		c-6.3-0.4-9.1,15.7-16.7,16.1c-7.7,0.3-10.8-15.8-19.1-15.7c-7.9,0.1-10,14.8-18.4,15.2c-9,0.5-13.1-16.2-21.4-15.4
		c-7.9,0.7-8.8,16.1-17.3,17.2c-8.8,1.2-14.6-14.3-21.6-12.7c-3.1,0.7-6.6,4.8-8.7,19.4"/>
	<path class="st1" d="M406.7,162.2"/>
	<ellipse class="st2" cx="470.1" cy="212.5" rx="5.9" ry="8.8"/>
	<path class="st1" d="M227.4,98.7c-5.8,5.9-12.3,13.9-18,24.1c-11.8,21.3-13.6,41.3-13.7,52.9"/>
	<path class="st1" d="M195.8,96.7c-5.8,5.2-12.3,12.3-18,21.3c-11.8,18.8-13.6,36.4-13.7,46.7"/>
	<path class="st1" d="M261.1,103.2c-5.8,5.2-12.3,12.3-18,21.3c-11.8,18.8-13.6,36.4-13.7,46.7"/>
	<path class="st1" d="M-39.9,108"/>
</g>
</svg>
